{"title":"AMORE MIO (2015) Greek DVDRip x264 AC3 5.1-N3kr4","uid":13505102,"size":1520413441,"categoryP":"video","categoryS":"movies","magnet":"?xt=urn:btih:ca4a22283453307ae749ccf5dd95d5039cb568b4&amp;dn=AMORE+MIO+%282015%29+Greek+DVDRip+x264+AC3+5.1-N3kr4&amp;tr=udp%3A%2F%2Ftracker.leechers-paradise.org%3A6969&amp;tr=udp%3A%2F%2Fzer0day.ch%3A1337&amp;tr=udp%3A%2F%2Fopen.demonii.com%3A1337&amp;tr=udp%3A%2F%2Ftracker.coppersurfer.tk%3A6969&amp;tr=udp%3A%2F%2Fexodus.desync.com%3A6969","seeders":1,"leechers":0,"uploader":"Falcon.G13","files":1,"time":1455235669,"description":"http://i.imgur.com/Rhuar5a.jpg\r\n\r\n\r\nÎŸÎ¹ ÎµÎ¾Ï‰ÏƒÏ…Î¶Ï…Î³Î¹ÎºÎ­Ï‚ Ï€ÎµÏÎ¹Ï€Î­Ï„ÎµÎ¹ÎµÏ‚ ÎµÎ½ÏŒÏ‚ Ï€ÏÎ¿Ï€Î¿Î½Î·Ï„Î® Î³Ï…Î½Î±Î¹ÎºÎµÎ¯Î±Ï‚ Î¿Î¼Î¬Î´Î±Ï‚\r\n Î²ÏŒÎ»ÎµÏŠ, Î¼Î¹Î± ÎºÎ¿Î»Î»Î·Ï„Î® ÎºÎ¹ Î­Î½Î±Ï‚ ÎºÎ¿Î»Î»Î·Ï„ÏŒÏ‚ Ï€Î¿Ï… ÎµÏÏ‰Ï„ÎµÏÎ¿Î½Ï„Î±Î¹ Ï„Î·Î½ Î¯Î´Î¹Î± Î³Ï…Î½Î±Î¹ÎºÎ¬ÏÎ±, \r\nÎ¼Î¹Î± Î±Î½Î­Î»Ï€Î¹ÏƒÏ„Î± Î±Ï„Î±Î¯ÏÎ¹Î±ÏƒÏ„Î· ÏƒÏ‡Î­ÏƒÎ· Î¼ÎµÏ„Î±Î¾Ï ÎµÏ„ÎµÏÏŽÎ½Ï…Î¼Ï‰Î½ ÎºÎ±Î¹ Î¿Î¹ Î¼ÎµÏ„Î¬-ÏƒÏ…Î¶Ï…Î³Î¹ÎºÎ­Ï‚\r\n Î±Î½Î±Î¶Î·Ï„Î®ÏƒÎµÎ¹Ï‚ ÎµÎ½ÏŒÏ‚ Î³Î¬Î¼Î¿Ï… Ï„Î·Ï‚ ÏƒÏ…Î¼Ï†Î¿ÏÎ¬Ï‚\r\n Î¼Ï€Î»Î­ÎºÎ¿Î½Ï„Î±Î¹ Î¼Îµ Ï„Î¿Î½ Ï€Î¹Î¿ Î±Ï€ÏÏŒÎ²Î»ÎµÏ€Ï„Î¿ Ï„ÏÏŒÏ€Î¿.\r\n\r\nÎ•Î¯Î´Î¿Ï‚ Î¤Î±Î¹Î½Î¯Î±Ï‚ : ÎšÏ‰Î¼Ï‰Î´Î¯Î±\r\nÎ§ÏŽÏÎ± Î Î±ÏÎ±Î³Ï‰Î³Î®Ï‚ : Î•Î»Î»Î¬Î´Î±\r\nÎ“Î»ÏŽÏƒÏƒÎ± : Î•Î»Î»Î·Î½Î¹ÎºÎ¬\r\nÎ”Î¹Î¬ÏÎºÎµÎ¹Î± : 95 min\r\nÎ£ÎºÎ·Î½Î¿Î¸ÎµÏƒÎ¯Î± : Î§ÏÎ®ÏƒÏ„Î¿Ï‚ Î”Î®Î¼Î±Ï‚\r\nÎ£ÎµÎ½Î¬ÏÎ¹Î¿ : ÎˆÎ»ÎµÎ½Î± Î£Î¿Î»Ï‰Î¼Î¿Ï, ÎšÏ‰ÏƒÏ„Î®Ï‚ Î Î±Ï€Î±Î´ÏŒÏ€Î¿Ï…Î»Î¿Ï‚\r\nÎ—Î¸Î¿Ï€Î¿Î¹Î¿Î¯ : Î¦Î¬Î½Î·Ï‚ ÎœÎ¿Ï…ÏÎ±Ï„Î¯Î´Î·Ï‚, Î™Ï‰Î¬Î½Î½Î± Î¤ÏÎ¹Î±Î½Ï„Î±Ï†Ï…Î»Î»Î¯Î´Î¿Ï…, ÎÎ±Ï„Î±Î»Î¯Î± Î¤ÏƒÎ±Î»Î¯ÎºÎ·, ÎœÏ…ÏÏ„ÏŽ Î‘Î»Î¹ÎºÎ¬ÎºÎ·...\r\n\r\n \nhttp://i.imgur.com/RjPa7YI.jpg \nhttp://i.imgur.com/b8RHtRK.jpg \nhttp://i.imgur.com/irvPuUq.jpg \nhttp://i.imgur.com/vBrnqBN.jpg \nhttp://i.imgur.com/qe4NFJn.jpg \nhttp://i.imgur.com/2iYzSKi.jpg \nhttp://i.imgur.com/Gp6zUmp.jpg\r\n\r\nGeneral\r\nAMORE MIO (2015) DVDRip x264 AC3 5.1.mkv\r\nFormat : Matroska\r\nFormat version : Version 2\r\nFile size : 1.42 GiB\r\nDuration : 1h 46mn\r\nOverall bit rate : 1 901 Kbps\r\nWriting application : HandBrake 0.10.0 2014112200\r\nWriting library : Lavf55.12.0\r\n\r\nVideo\r\nID : 1\r\nFormat : AVC\r\nFormat/Info : Advanced Video Codec\r\nFormat profile :   \r\nFormat settings, CABAC : Yes\r\nFormat settings, ReFrames : 4 frames\r\nCodec ID : V_MPEG4/ISO/AVC\r\nDuration : 1h 46mn\r\nBit rate : 1 450 Kbps\r\nWidth : 720 pixels\r\nHeight : 324 pixels\r\nDisplay aspect ratio : 2.222\r\nFrame rate mode : Constant\r\nFrame rate : 25.000 fps\r\nColor space : YUV\r\nChroma subsampling : 4:2:0\r\nBit depth : 8 bits\r\nScan type : Progressive\r\nBits/(Pixel*Frame) : 0.249\r\nStream size : 1.05 GiB (74%)\r\nWriting library : x264 core 142 r2479 dd79a61\r\nDefault : Yes\r\nForced : No\r\nColor range : Limited\r\nColor primaries : BT.601 PAL\r\nTransfer characteristics : BT.709\r\nMatrix coefficients : BT.601\r\n\r\nAudio\r\nID : 2\r\nFormat : AC-3\r\nFormat/Info : Audio Coding 3\r\nMode extension : CM (complete main)\r\nFormat settings, Endianness : Big\r\nCodec ID : A_AC3\r\nDuration : 1h 46mn\r\nBit rate mode : Constant\r\nBit rate : 448 Kbps\r\nChannel(s) : 6 channels\r\nChannel positions : Front: L C R, Side: L R, LFE\r\nSampling rate : 48.0 KHz\r\nCompression mode : Lossy\r\nDelay relative to video : 27ms\r\nStream size : 342 MiB (24%)\r\nLanguage : Greek\r\nDefault : Yes\r\nForced : No","torrent":{"xt":"urn:btih:ca4a22283453307ae749ccf5dd95d5039cb568b4","amp;dn":"AMORE+MIO+%282015%29+Greek+DVDRip+x264+AC3+5.1-N3kr4","amp;tr":["udp%3A%2F%2Ftracker.leechers-paradise.org%3A6969","udp%3A%2F%2Fzer0day.ch%3A1337","udp%3A%2F%2Fopen.demonii.com%3A1337","udp%3A%2F%2Ftracker.coppersurfer.tk%3A6969","udp%3A%2F%2Fexodus.desync.com%3A6969"],"infoHash":"ca4a22283453307ae749ccf5dd95d5039cb568b4","infoHashBuffer":{"type":"Buffer","data":[202,74,34,40,52,83,48,122,231,73,204,245,221,149,213,3,156,181,104,180]},"announce":[],"urlList":[]}}